<?xml version="1.0" encoding="UTF-8" standalone="no"?>
<!-- Created with Inkscape (http://www.inkscape.org/) -->

<svg
   xmlns:dc="http://purl.org/dc/elements/1.1/"
   xmlns:cc="http://creativecommons.org/ns#"
   xmlns:rdf="http://www.w3.org/1999/02/22-rdf-syntax-ns#"
   xmlns:svg="http://www.w3.org/2000/svg"
   xmlns="http://www.w3.org/2000/svg"
   xmlns:sodipodi="http://sodipodi.sourceforge.net/DTD/sodipodi-0.dtd"
   xmlns:inkscape="http://www.inkscape.org/namespaces/inkscape"
   width="136.8951mm"
   height="54.5858mm"
   viewBox="0 0 136.8951 54.5858"
   version="1.1"
   id="svg8"
   inkscape:version="0.92.5 (2060ec1f9f, 2020-04-08)"
   sodipodi:docname="logo.svg">
  <defs
     id="defs2" />
  <sodipodi:namedview
     id="base"
     pagecolor="#ffffff"
     bordercolor="#666666"
     borderopacity="1.0"
     inkscape:pageopacity="0.0"
     inkscape:pageshadow="2"
     inkscape:zoom="1.4"
     inkscape:cx="220.8117"
     inkscape:cy="137.79788"
     inkscape:document-units="mm"
     inkscape:current-layer="layer1"
     showgrid="false"
     showguides="true"
     inkscape:guide-bbox="true"
     inkscape:object-paths="true"
     inkscape:snap-smooth-nodes="true"
     inkscape:snap-intersection-paths="true"
     inkscape:snap-center="true"
     inkscape:object-nodes="true"
     inkscape:window-width="1920"
     inkscape:window-height="1031"
     inkscape:window-x="0"
     inkscape:window-y="25"
     inkscape:window-maximized="1" />
  <metadata
     id="metadata5">
    <rdf:RDF>
      <cc:Work
         rdf:about="">
        <dc:format>image/svg+xml</dc:format>
        <dc:type
           rdf:resource="http://purl.org/dc/dcmitype/StillImage" />
        <dc:title></dc:title>
      </cc:Work>
    </rdf:RDF>
  </metadata>
  <g
     inkscape:label="Layer 1"
     inkscape:groupmode="layer"
     id="layer1"
     transform="translate(-37.154798,-88.924101)">
    <g
       id="g878"
       style="fill:#000000">
      <g
         id="text828"
         style="font-style:normal;font-variant:normal;font-weight:normal;font-stretch:normal;font-size:29.82296944px;line-height:1.25;font-family:JunePro;-inkscape-font-specification:JunePro;letter-spacing:0px;word-spacing:0px;fill:#000000;fill-opacity:1;stroke:none;stroke-width:0.74557424"
         aria-label="BASISTIC">
        <path
           inkscape:connector-curvature="0"
           id="path835"
           style="fill:#000000;fill-opacity:1;stroke-width:0.74557424"
           d="m 50.515488,115.5609 q 0.536814,0.23858 1.10345,0.65611 0.59646,0.41752 1.073627,1.07362 0.506991,0.65611 0.80522,1.5508 0.328053,0.89469 0.328053,2.0876 0,1.5508 -0.596459,2.77354 -0.566637,1.19292 -1.640264,2.02796 -1.043804,0.80522 -2.505129,1.22274 -1.431503,0.41753 -3.191058,0.41753 h -8.73813 v -22.30758 h 8.290786 q 1.729732,0 3.101588,0.44734 1.371857,0.41752 2.326192,1.22274 0.954335,0.80522 1.461326,1.90867 0.50699,1.10345 0.50699,2.44548 0,1.67009 -0.685928,2.74372 -0.685929,1.0438 -1.640264,1.72973 z m -8.201316,-6.32247 v 4.8015 h 2.027962 q 1.491148,0 2.41566,-0.47717 0.954335,-0.47717 0.954335,-1.96831 0,-0.71576 -0.238583,-1.1631 -0.238584,-0.47717 -0.685929,-0.71575 -0.447344,-0.26841 -1.073627,-0.35788 -0.626282,-0.11929 -1.371856,-0.11929 z m 2.505129,13.92733 q 1.670087,0 2.684068,-0.59646 1.043803,-0.59646 1.043803,-2.08761 0,-0.80522 -0.298229,-1.31221 -0.268407,-0.50699 -0.775397,-0.80522 -0.506991,-0.32805 -1.192919,-0.44735 -0.656106,-0.11929 -1.461326,-0.11929 h -2.505129 v 5.36814 z" />
        <path
           inkscape:connector-curvature="0"
           id="path837"
           style="fill:#000000;fill-opacity:1;stroke-width:0.74557424"
           d="m 70.472874,127.3708 -1.192919,-4.29451 h -7.425919 l -1.163096,4.29451 h -5.278665 l 6.889106,-22.30758 h 6.53123 l 6.889106,22.30758 z m -7.455742,-8.49955 h 5.129551 l -2.564776,-9.36441 z" />
        <path
           inkscape:connector-curvature="0"
           id="path839"
           style="fill:#000000;fill-opacity:1;stroke-width:0.74557424"
           d="m 85.121771,127.69885 q -2.266546,0 -4.205039,-0.68593 -1.90867,-0.71575 -3.608579,-2.11743 l 2.236722,-3.6384 q 1.431503,1.01398 2.713891,1.52097 1.282387,0.50699 2.624421,0.50699 1.342034,0 2.087608,-0.59646 0.745574,-0.59646 0.745574,-1.58062 0,-0.89469 -0.715751,-1.4315 -0.715751,-0.56664 -1.789378,-1.0438 -1.073627,-0.47717 -2.326192,-0.98416 -1.222742,-0.50699 -2.296369,-1.28239 -1.073626,-0.7754 -1.789378,-1.93849 -0.715751,-1.1631 -0.715751,-2.9823 0,-1.58062 0.536813,-2.80336 0.566637,-1.25256 1.520972,-2.11743 0.954335,-0.86487 2.266546,-1.31221 1.31221,-0.47717 2.863005,-0.47717 2.147253,0 3.906809,0.68593 1.789378,0.65611 3.131411,1.8192 l -2.445483,3.37 q -0.954335,-0.68593 -2.027962,-1.10345 -1.073627,-0.41752 -2.147254,-0.41752 -0.954335,0 -1.699909,0.47716 -0.715751,0.47717 -0.715751,1.43151 0,0.83504 0.715751,1.40168 0.715751,0.53681 1.789378,1.01398 1.073627,0.47716 2.326192,0.98415 1.252564,0.50699 2.326191,1.31222 1.073627,0.80522 1.789378,2.02796 0.715752,1.19292 0.715752,3.01212 0,1.64026 -0.59646,2.95247 -0.566636,1.28239 -1.61044,2.17708 -1.043804,0.89469 -2.475306,1.37185 -1.431503,0.44735 -3.131412,0.44735 z" />
        <path
           sodipodi:nodetypes="ccccc"
           inkscape:connector-curvature="0"
           id="path841"
           style="fill:#000000;fill-opacity:1;stroke-width:0.74557424"
           d="m 94.521831,127.3708 4.235164,-22.30758 h 5.159365 l -4.235155,22.30758 z" />
        <path
           inkscape:connector-curvature="0"
           id="path843"
           d="m 114.88498,104.73521 c -0.71061,0 -1.39739,0.0771 -2.06189,0.22737 l -1.14567,6.03219 c 0.12342,-0.63465 0.45392,-1.11074 0.99167,-1.42833 0.55852,-0.31811 1.15591,-0.47698 1.79214,-0.47698 0.71575,0 1.40457,0.1392 2.06654,0.41755 0.66197,0.27834 1.26702,0.646 1.81488,1.10329 l 3.09645,-3.36982 c -0.74485,-0.77539 -1.67128,-1.38212 -2.77968,-1.81952 -1.08467,-0.45729 -2.34294,-0.68575 -3.77444,-0.68575 z m -3.20859,6.26577 -1.2945,6.81767 c 0.62254,0.27771 1.21501,0.54988 1.75803,0.8139 0.65429,0.31811 1.18384,0.6661 1.58802,1.04386 0.40798,0.35788 0.55396,0.83498 0.43873,1.43144 -0.12678,0.65611 -0.47669,1.18314 -1.05058,1.58078 -0.57388,0.39764 -1.30827,0.59635 -2.20296,0.59635 -0.5302,0 -1.0415,-0.0606 -1.53479,-0.17932 l -0.85008,4.47725 c 0.56511,0.076 1.15426,0.11575 1.77043,0.11575 1.13328,1e-5 2.20593,-0.14876 3.21789,-0.447 1.01581,-0.3181 1.92927,-0.77555 2.7404,-1.37201 0.81113,-0.59646 1.48794,-1.3222 2.03089,-2.17712 0.56668,-0.87481 0.95606,-1.85877 1.16737,-2.95228 0.23435,-1.2128 0.18964,-2.21694 -0.13384,-3.01222 -0.31966,-0.81516 -0.78532,-1.49097 -1.39733,-2.02778 -0.61202,-0.53682 -1.30301,-0.97459 -2.07274,-1.31258 -0.76974,-0.338 -1.48203,-0.66582 -2.13631,-0.98392 -0.65427,-0.31812 -1.18517,-0.65602 -1.59318,-1.01389 -0.40365,-0.37705 -0.55208,-0.84359 -0.44545,-1.39888 z"
           style="fill:#000000;fill-opacity:1;stroke-width:0.74557424" />
        <path
           inkscape:connector-curvature="0"
           id="path845"
           style="fill:#000000;fill-opacity:1;stroke-width:0.74557424"
           d="m 143.3799,105.06322 v 4.59273 h -6.68034 v 17.71485 h -5.15938 v -17.71485 h -6.65052 v -4.59273 z" />
        <path
           inkscape:connector-curvature="0"
           id="path847"
           style="fill:#000000;fill-opacity:1;stroke-width:0.74557424"
           d="m 146.83044,127.3708 v -22.30758 h 5.15938 v 22.30758 z" />
        <path
           inkscape:connector-curvature="0"
           id="path849"
           style="fill:#000000;fill-opacity:1;stroke-width:0.74557424"
           d="m 165.81877,127.72867 q -2.41567,0 -4.35416,-0.74557 -1.90867,-0.7754 -3.2507,-2.2069 -1.34204,-1.4315 -2.05779,-3.51911 -0.71575,-2.08761 -0.71575,-4.74185 0,-2.68407 0.71575,-4.86115 0.74558,-2.17708 2.11743,-3.72787 1.40168,-1.55079 3.37,-2.38584 1.96832,-0.83504 4.44362,-0.83504 1.37186,0 2.50513,0.23858 1.13327,0.23859 2.08761,0.65611 0.95433,0.3877 1.72973,0.89469 0.80522,0.50699 1.46133,1.0438 l -2.50513,3.72787 q -1.13328,-0.74557 -2.32619,-1.22274 -1.19292,-0.47717 -2.62443,-0.47717 -2.62442,0 -4.05592,1.78938 -1.4315,1.75956 -1.4315,4.89097 0,3.13141 1.4315,4.89097 1.4315,1.72973 4.11557,1.72973 1.52097,0 2.77354,-0.53682 1.25256,-0.56663 2.5946,-1.49114 l 2.20689,3.75769 q -0.80522,0.65611 -1.6999,1.25256 -0.86487,0.56664 -1.84903,0.98416 -0.98416,0.41752 -2.14725,0.65611 -1.13328,0.23858 -2.53495,0.23858 z" />
      </g>
      <path
         sodipodi:nodetypes="ccccc"
         inkscape:connector-curvature="0"
         id="rect832"
         d="m 131.04385,91.337098 h 2.47224 l 2.43909,56.067012 h -2.47224 z"
         style="opacity:1;fill:#000000;fill-opacity:1;stroke:none;stroke-width:2.6814909;stroke-miterlimit:4;stroke-dasharray:none;stroke-opacity:1"
         transform="matrix(1,0,-0.22834019,0.97358141,0,0)" />
    </g>
  </g>
</svg>
